<svg id="Layer_1" data-name="Layer 1" xmlns="http://www.w3.org/2000/svg" viewBox="0 0 408.15 343.17"><defs><style>.cls-1{fill:#c4c4c4;}</style></defs><title>ttt-x-win</title><path d="M136.59,2249l28.53-52.45h36L156.86,2272l45.46,76.7H165.85l-29.26-53.29-29.26,53.29H70.87l45.45-76.7L72,2196.59h36.05Z" transform="translate(-70.87 -2188.23)"/><path d="M224.78,2243.29,210.57,2235q9-14.1,9.3-29.15v-17.66h24v16.19q0,9.4-5.23,20.38A56,56,0,0,1,224.78,2243.29Z" transform="translate(-70.87 -2188.23)"/><path d="M302.21,2317.48q0-5.54-5.48-8.72t-17.61-5.7q-40.34-8.46-40.33-34.27,0-15,12.48-25.13t32.66-10.08q21.52,0,34.43,10.13t12.9,26.33h-30.2a14.63,14.63,0,0,0-4.18-10.71q-4.17-4.23-13.06-4.23-7.62,0-11.81,3.45a10.9,10.9,0,0,0-4.18,8.78q0,5,4.76,8.1t16,5.33a130.55,130.55,0,0,1,19,5.06q23.93,8.78,23.92,30.41,0,15.46-13.27,25T284,2350.82a59.73,59.73,0,0,1-25.23-5.07,42.28,42.28,0,0,1-17.3-13.9,32.27,32.27,0,0,1-6.27-19.07h28.63q.42,8.05,6,12.33t14.84,4.29q8.67,0,13.11-3.3A10.23,10.23,0,0,0,302.21,2317.48Z" transform="translate(-70.87 -2188.23)"/><path d="M200.65,2485.84l20.48-108.25h31.24l-33.75,152.14H187.06L162.3,2428l-24.77,101.78H106L72.22,2377.59h31.25l20.58,108,25.08-108h26.54Z" transform="translate(-70.87 -2188.23)"/><path d="M267.1,2387.41a14.86,14.86,0,0,1,4.55-11.18q4.55-4.39,12.38-4.39t12.33,4.39a15.95,15.95,0,0,1-.05,22.46q-4.65,4.39-12.28,4.39t-12.28-4.39A14.8,14.8,0,0,1,267.1,2387.41Zm32.08,142.32h-30.3V2416.67h30.3Z" transform="translate(-70.87 -2188.23)"/><path d="M351.85,2416.67l.94,13.06q12.12-15.15,32.49-15.15,18,0,26.75,10.55t9,31.56v73h-30.2v-72.31q0-9.61-4.18-14t-13.9-4.34q-12.75,0-19.12,10.87v79.73h-30.2V2416.67Z" transform="translate(-70.87 -2188.23)"/><path d="M462.08,2499.53q7.64,0,12.28,4.49a16.41,16.41,0,0,1,0,22.89q-4.65,4.49-12.28,4.49t-12.17-4.49a15.18,15.18,0,0,1-4.65-11.39,15.35,15.35,0,0,1,4.65-11.45Q454.56,2499.52,462.08,2499.53ZM474.62,2483H449.55L446,2377.59h32.19Z" transform="translate(-70.87 -2188.23)"/><rect class="cls-1" x="414.18" y="2239.58" width="24.41" height="103.64" transform="translate(-1935.89 529.56) rotate(-90)"/></svg>