<svg id="Layer_1" data-name="Layer 1" xmlns="http://www.w3.org/2000/svg" viewBox="0 0 506.79 154.23"><defs><style>.cls-1{fill:#c4c4c4;}</style></defs><title>ttt-draw</title><path d="M584.56,2207.17V2055h46.81q20.07,0,35.9,9A63,63,0,0,1,692,2089.78q8.88,16.66,8.88,37.87v7q0,21.22-8.72,37.73a62.54,62.54,0,0,1-24.61,25.6q-15.88,9.09-35.84,9.19Zm31.35-126.75V2182h15.15q18.39,0,28.11-12t9.93-34.38v-8q0-23.21-9.62-35.16t-28.11-12Z" transform="translate(-584.56 -2055.03)"/><path d="M785.19,2122.43a81.75,81.75,0,0,0-10.87-.84q-17.15,0-22.47,11.6v74H721.66V2094.11h28.52l.84,13.48Q760.11,2092,776.2,2092a31.79,31.79,0,0,1,9.4,1.36Z" transform="translate(-584.56 -2055.03)"/><path d="M862.09,2207.17a33.71,33.71,0,0,1-3-10.13q-11,12.23-28.52,12.22-16.62,0-27.54-9.61a30.92,30.92,0,0,1-10.92-24.24q0-18,13.33-27.59t38.5-9.72h13.9v-6.48q0-7.83-4-12.54t-12.7-4.7q-7.64,0-12,3.66a12.4,12.4,0,0,0-4.34,10h-30.2a30.32,30.32,0,0,1,6.06-18.18q6.06-8.35,17.14-13.11a62.42,62.42,0,0,1,24.87-4.76q20.9,0,33.17,10.5T888.11,2132v49q.1,16.1,4.49,24.35v1.77Zm-25-21a26,26,0,0,0,12.33-3,19.55,19.55,0,0,0,8.36-8v-19.44H846.52q-22.66,0-24.13,15.68l-.11,1.77a12.08,12.08,0,0,0,4,9.3Q830.22,2186.17,837.12,2186.17Z" transform="translate(-584.56 -2055.03)"/><path d="M1009.64,2166.11l14.83-72h29.16l-28.84,113.06H999.5L978.08,2136l-21.42,71.16H931.48l-28.84-113.06h29.15L946.52,2166l20.69-71.89h21.84Z" transform="translate(-584.56 -2055.03)"/><path class="cls-1" d="M1057.18,2192.33a15.21,15.21,0,0,1,4.86-11.7,18.89,18.89,0,0,1,24.45,0,15.21,15.21,0,0,1,4.86,11.7,15,15,0,0,1-4.81,11.55,19.19,19.19,0,0,1-24.55,0A15,15,0,0,1,1057.18,2192.33Z" transform="translate(-584.56 -2055.03)"/></svg>