<svg id="Layer_1" data-name="Layer 1" xmlns="http://www.w3.org/2000/svg" viewBox="0 0 506.79 179"><defs><style>.cls-1{fill:#c4c4c4;}</style></defs><title>ttt-draw</title><path d="M82.15,2898.13V2746H129q20.07,0,35.9,9a63,63,0,0,1,24.71,25.7q8.88,16.68,8.88,37.88v7q0,21.22-8.72,37.72a62.48,62.48,0,0,1-24.61,25.6q-15.88,9.11-35.84,9.2Zm31.35-126.75V2873h15.15q18.39,0,28.11-12t9.93-34.38v-8q0-23.21-9.62-35.16t-28.11-12Z" transform="translate(-82.15 -2721.22)"/><path d="M282.78,2813.39a81.75,81.75,0,0,0-10.87-.84q-17.15,0-22.47,11.6v74H219.25V2785.07h28.52l.84,13.48Q257.7,2783,273.79,2783a31.46,31.46,0,0,1,9.4,1.36Z" transform="translate(-82.15 -2721.22)"/><path d="M359.68,2898.13a33.78,33.78,0,0,1-3-10.14q-11,12.23-28.52,12.23-16.62,0-27.54-9.61a30.92,30.92,0,0,1-10.92-24.25q0-18,13.33-27.58t38.5-9.72h13.9v-6.48q0-7.83-4-12.54t-12.7-4.7q-7.64,0-12,3.66a12.4,12.4,0,0,0-4.34,10h-30.2a30.32,30.32,0,0,1,6.06-18.18q6.06-8.37,17.14-13.12a62.42,62.42,0,0,1,24.87-4.75q20.89,0,33.17,10.5T385.7,2823v49q.1,16.09,4.49,24.34v1.78Zm-25-21a26.06,26.06,0,0,0,12.33-3,19.61,19.61,0,0,0,8.36-8v-19.44H344.11q-22.67,0-24.13,15.67l-.11,1.78a12.08,12.08,0,0,0,4,9.3Q327.82,2877.13,334.71,2877.13Z" transform="translate(-82.15 -2721.22)"/><path d="M507.23,2857.06l14.83-72h29.16l-28.84,113.06H497.09L475.67,2827l-21.42,71.16H429.07l-28.84-113.06h29.15L444.11,2857l20.69-71.89h21.84Z" transform="translate(-82.15 -2721.22)"/><path d="M554.77,2883.29a15.21,15.21,0,0,1,4.86-11.7,18.89,18.89,0,0,1,24.45,0,15.21,15.21,0,0,1,4.86,11.7,15,15,0,0,1-4.81,11.55,19.19,19.19,0,0,1-24.55,0A15,15,0,0,1,554.77,2883.29Z" transform="translate(-82.15 -2721.22)"/><rect class="cls-1" x="372.82" y="2567.07" width="24.41" height="332.71" transform="translate(-2430.56 397.22) rotate(-90)"/></svg>