<svg id="Layer_1" data-name="Layer 1" xmlns="http://www.w3.org/2000/svg" viewBox="0 0 299.27 511.98"><defs><style>.cls-1{fill:#c4c4c4;}</style></defs><title>ttt-logo-1</title><path d="M116.31,603.55v27.79h19.33V653.5H116.31v56.42q0,6.27,2.4,9c1.61,1.81,4.67,2.72,9.2,2.72a47.93,47.93,0,0,0,8.88-.74v22.89a62.22,62.22,0,0,1-18.29,2.71q-31.75,0-32.39-32.07V653.5H69.6V631.34H86.11V603.55Z" transform="translate(-69.6 -586.52)"/><path d="M152.26,602.09a14.85,14.85,0,0,1,4.54-11.18q4.55-4.39,12.38-4.39t12.33,4.39a15.95,15.95,0,0,1,0,22.46q-4.65,4.39-12.28,4.39c-5.08,0-9.18-1.46-12.27-4.39A14.82,14.82,0,0,1,152.26,602.09ZM184.33,744.4H154V631.34h30.3Z" transform="translate(-69.6 -586.52)"/><path d="M256.23,722.15q8.36,0,13.58-4.6a16.11,16.11,0,0,0,5.43-12.23h28.32a38.73,38.73,0,0,1-6.27,21.06,41.4,41.4,0,0,1-16.87,14.84,53,53,0,0,1-23.67,5.27q-24.24,0-38.25-15.41t-14-42.58v-2q0-26.13,13.9-41.7t38.14-15.57q21.21,0,34,12.07t13,32.13H275.24q-.21-8.82-5.43-14.33T256,653.6q-10.56,0-15.94,7.69t-5.38,25v3.14q0,17.48,5.33,25.12T256.23,722.15Z" transform="translate(-69.6 -586.52)"/><path d="M116.31,779.55v27.79h19.33V829.5H116.31v56.42q0,6.27,2.4,9c1.61,1.81,4.67,2.72,9.2,2.72a47.93,47.93,0,0,0,8.88-.74v22.89a62.22,62.22,0,0,1-18.29,2.71q-31.75,0-32.39-32.07V829.5H69.6V807.34H86.11V779.55Z" transform="translate(-69.6 -586.52)"/><path d="M218,920.4a33.62,33.62,0,0,1-3-10.13q-11,12.22-28.53,12.22-16.6,0-27.53-9.61A30.92,30.92,0,0,1,148,888.64q0-18,13.32-27.59t38.51-9.71h13.9v-6.48q0-7.85-4-12.54T197,827.62q-7.64,0-12,3.65a12.43,12.43,0,0,0-4.33,10h-30.2a30.36,30.36,0,0,1,6.06-18.18q6.06-8.36,17.14-13.11a62.42,62.42,0,0,1,24.87-4.76q20.89,0,33.17,10.51T244,845.27v49q.1,16.1,4.49,24.35v1.77Zm-25-21a26,26,0,0,0,12.33-3,19.6,19.6,0,0,0,8.36-8V869H202.41q-22.68,0-24.14,15.68l-.1,1.77a12.06,12.06,0,0,0,4,9.3Q186.12,899.4,193,899.4Z" transform="translate(-69.6 -586.52)"/><path d="M314.22,898.15q8.36,0,13.58-4.6a16.09,16.09,0,0,0,5.44-12.23h28.31a38.73,38.73,0,0,1-6.27,21.06,41.4,41.4,0,0,1-16.87,14.84,52.92,52.92,0,0,1-23.67,5.27q-24.24,0-38.24-15.41t-14-42.58v-2q0-26.13,13.89-41.7t38.14-15.57q21.21,0,34,12.07t13,32.13H333.24q-.21-8.82-5.44-14.33T314,829.6q-10.56,0-15.94,7.69t-5.38,25v3.14q0,17.48,5.33,25.12T314.22,898.15Z" transform="translate(-69.6 -586.52)"/><path d="M116.31,955.55v27.79h19.33v22.16H116.31v56.42q0,6.27,2.4,9c1.61,1.81,4.67,2.72,9.2,2.72a47.93,47.93,0,0,0,8.88-.74v22.89a62.22,62.22,0,0,1-18.29,2.71q-31.75,0-32.39-32.07V1005.5H69.6V983.34H86.11V955.55Z" transform="translate(-69.6 -586.52)"/><path d="M144.63,1038.83q0-16.83,6.48-30a47.35,47.35,0,0,1,18.65-20.38q12.17-7.2,28.26-7.21,22.89,0,37.36,14t16.14,38l.21,7.73q0,26-14.52,41.75t-39,15.72q-24.45,0-39-15.67t-14.57-42.63Zm30.2,2.14q0,16.13,6.06,24.65t17.34,8.53q11,0,17.14-8.43t6.16-26.94q0-15.81-6.16-24.49T198,1005.6q-11.07,0-17.13,8.63T174.83,1041Z" transform="translate(-69.6 -586.52)"/><path d="M322.37,1098.49q-24.87,0-40.49-15.25t-15.62-40.65v-2.92q0-17,6.58-30.46a48.36,48.36,0,0,1,18.65-20.69A52.38,52.38,0,0,1,319,981.25q23.19,0,36.52,14.63t13.32,41.49v12.33h-72q1.47,11.07,8.83,17.76t18.65,6.69q17.46,0,27.28-12.65l14.83,16.62a45.15,45.15,0,0,1-18.39,15A60.28,60.28,0,0,1,322.37,1098.49Zm-3.45-92.89a18.88,18.88,0,0,0-14.58,6.09q-5.58,6.09-7.15,17.42h42v-2.41q-.21-10.08-5.43-15.59T318.92,1005.6Z" transform="translate(-69.6 -586.52)"/><rect class="cls-1" x="331.1" y="666.24" width="24.41" height="45.36" transform="translate(-415.21 445.71) rotate(-90)"/></svg>