<svg id="Layer_1" data-name="Layer 1" xmlns="http://www.w3.org/2000/svg" viewBox="0 0 546.59 335.23"><defs><style>.cls-1{fill:#c4c4c4;}</style></defs><title>ttt-new-game</title><path d="M205.87,1387.5H174.52l-61-100.1v100.1H82.15V1235.36H113.5l61.13,100.32V1235.36h31.24Z" transform="translate(-78.39 -1235.36)"/><path d="M283.3,1389.59q-24.87,0-40.49-15.25t-15.62-40.65v-2.92q0-17,6.58-30.46a48.36,48.36,0,0,1,18.65-20.69,52.38,52.38,0,0,1,27.54-7.27q23.19,0,36.52,14.63t13.32,41.49v12.33h-72q1.47,11.07,8.83,17.76t18.65,6.69q17.46,0,27.28-12.65l14.83,16.62a45.15,45.15,0,0,1-18.39,15A60.28,60.28,0,0,1,283.3,1389.59Zm-3.45-92.89a18.88,18.88,0,0,0-14.58,6.09q-5.58,6.09-7.15,17.42h42v-2.41q-.21-10.08-5.43-15.59T279.85,1296.7Z" transform="translate(-78.39 -1235.36)"/><path d="M445.26,1346.44l14.84-72h29.15L460.41,1387.5H435.13l-21.43-71.15-21.42,71.15H367.1l-28.84-113.06h29.16l14.73,71.89,20.69-71.89h21.84Z" transform="translate(-78.39 -1235.36)"/><path d="M202.53,1549.28q-8.47,10.14-23.93,15.72a100.17,100.17,0,0,1-34.28,5.59q-19.74,0-34.63-8.62a57.36,57.36,0,0,1-23-25q-8.1-16.41-8.31-38.56v-10.34q0-22.79,7.68-39.45t22.15-25.5q14.48-8.82,33.91-8.83,27.06,0,42.32,12.91t18.08,37.56H172q-2.08-13-9.24-19.12t-19.7-6.06q-16,0-24.35,12t-8.46,35.73V1497q0,23.92,9.09,36.16T146,1545.41q17.66,0,25.18-7.52v-26.23H142.65v-23.09h59.88Z" transform="translate(-78.39 -1235.36)"/><path d="M291.45,1568.5a33.33,33.33,0,0,1-3-10.13q-11,12.23-28.53,12.22-16.6,0-27.53-9.61a30.92,30.92,0,0,1-10.92-24.24q0-18,13.32-27.59t38.51-9.72h13.9V1493q0-7.85-4-12.54t-12.69-4.7q-7.63,0-12,3.65a12.43,12.43,0,0,0-4.33,10H224a30.36,30.36,0,0,1,6.06-18.18q6.06-8.35,17.13-13.11a62.49,62.49,0,0,1,24.87-4.76q20.91,0,33.18,10.51t12.28,29.51v49q.11,16.09,4.49,24.35v1.77Zm-25-21a26,26,0,0,0,12.33-3,19.6,19.6,0,0,0,8.36-8v-19.44H275.88q-22.68,0-24.14,15.68l-.1,1.77a12.06,12.06,0,0,0,4,9.3Q259.57,1547.5,266.48,1547.5Z" transform="translate(-78.39 -1235.36)"/><path d="M369,1455.44l.94,12.65q12-14.73,32.5-14.74,21.84,0,30,17.25,11.91-17.25,34-17.25,18.39,0,27.38,10.71t9,32.24v72.2h-30.3v-72.1q0-9.6-3.76-14.05t-13.27-4.44q-13.59,0-18.81,13l.1,77.63H406.5v-72q0-9.83-3.87-14.21t-13.17-4.39q-12.85,0-18.6,10.66v79.93H340.67V1455.44Z" transform="translate(-78.39 -1235.36)"/><path d="M578,1570.59q-24.87,0-40.49-15.25t-15.62-40.65v-2.92q0-17,6.58-30.46a48.29,48.29,0,0,1,18.65-20.69,52.37,52.37,0,0,1,27.53-7.27q23.21,0,36.52,14.63t13.33,41.49v12.33h-72q1.47,11.07,8.83,17.76t18.65,6.69q17.46,0,27.28-12.65l14.83,16.62a45.21,45.21,0,0,1-18.39,15A60.28,60.28,0,0,1,578,1570.59Zm-3.45-92.89a18.88,18.88,0,0,0-14.58,6.09q-5.58,6.09-7.15,17.42h42v-2.41q-.21-10.08-5.43-15.59T574.52,1477.7Z" transform="translate(-78.39 -1235.36)"/><rect class="cls-1" x="560.96" y="1278.36" width="24.41" height="103.64" transform="translate(-835.41 667.98) rotate(-90)"/></svg>