<svg id="Layer_1" data-name="Layer 1" xmlns="http://www.w3.org/2000/svg" viewBox="0 0 511.99 289.78"><defs><style>.cls-1{fill:#c4c4c4;}</style></defs><title>ttt-logo-2</title><path d="M529.29,305.22c-1.39-1.56-2.08-4.15-2.08-7.75v-48.7h16.68V229.65H527.21v-24H501.15v24H486.9v19.12h14.25v52.58q.54,27.67,28,27.68a53.76,53.76,0,0,0,15.79-2.34V306.94a41.71,41.71,0,0,1-7.67.63Q531.35,307.57,529.29,305.22Z" transform="translate(-486.86 -190.97)"/><path d="M572.84,191q-6.76,0-10.68,3.78a13.81,13.81,0,0,0,.09,19.39q4,3.8,10.59,3.79t10.6-3.79a13.77,13.77,0,0,0,0-19.39Q579.52,191,572.84,191Z" transform="translate(-486.86 -190.97)"/><rect x="72.9" y="38.69" width="26.15" height="97.57"/><path d="M634,255.5q4.65-6.65,13.75-6.64a15.67,15.67,0,0,1,11.91,4.76q4.5,4.75,4.69,12.37h24.43q-.18-17.31-11.22-27.73t-29.36-10.41q-20.93,0-32.91,13.44t-12,36V279q0,23.44,12.09,36.75t33,13.3a45.69,45.69,0,0,0,20.43-4.55,35.77,35.77,0,0,0,14.56-12.81,33.41,33.41,0,0,0,5.41-18.17H664.38a13.94,13.94,0,0,1-4.69,10.55q-4.52,4-11.73,4-9.37,0-14-6.59t-4.6-21.68V277Q629.38,262.15,634,255.5Z" transform="translate(-486.86 -190.97)"/><path d="M754.83,301.35Q755.37,329,782.78,329a53.74,53.74,0,0,0,15.78-2.34V306.94a41.59,41.59,0,0,1-7.66.63q-5.86,0-7.94-2.35c-1.38-1.56-2.07-4.15-2.07-7.75v-48.7h16.68V229.65H780.89v-24H754.83v24H740.58v19.12h14.25Z" transform="translate(-486.86 -190.97)"/><path d="M852.94,267.62q-21.74.09-33.23,8.38t-11.5,23.81a26.68,26.68,0,0,0,9.42,20.92q9.43,8.31,23.77,8.3,15.15,0,24.62-10.55a29,29,0,0,0,2.61,8.75H895v-1.54q-3.78-7.11-3.87-21V262.39q0-16.41-10.6-25.48t-28.63-9.06A54,54,0,0,0,830.4,232a34.53,34.53,0,0,0-14.79,11.32A26.16,26.16,0,0,0,810.38,259h26.06a10.72,10.72,0,0,1,3.74-8.66q3.74-3.15,10.33-3.15,7.49,0,11,4.06T864.93,262v5.59Zm12,32a16.79,16.79,0,0,1-7.21,6.9,22.48,22.48,0,0,1-10.64,2.57q-6,0-9.38-3.16a10.44,10.44,0,0,1-3.43-8l.09-1.53q1.27-13.53,20.84-13.53h9.73Z" transform="translate(-486.86 -190.97)"/><path d="M952.14,329a45.64,45.64,0,0,0,20.42-4.55,35.8,35.8,0,0,0,14.57-12.81,33.49,33.49,0,0,0,5.41-18.17H968.1a13.88,13.88,0,0,1-4.69,10.55q-4.51,4-11.72,4-9.39,0-14-6.59t-4.6-21.68V277q0-14.9,4.64-21.54t13.76-6.64a15.66,15.66,0,0,1,11.9,4.76q4.51,4.75,4.69,12.37h24.44q-.18-17.31-11.23-27.73T952,227.85q-20.93,0-32.92,13.44t-12,36V279q0,23.44,12.08,36.75T952.14,329Z" transform="translate(-486.86 -190.97)"/><path d="M783,456.94q-2.09-2.34-2.08-7.76V400.49h16.69V381.37H780.89v-24H754.83v24H740.58v19.12h14.25v52.57q.54,27.69,28,27.69a53.42,53.42,0,0,0,15.78-2.35V458.65a41.71,41.71,0,0,1-7.67.63Q785,459.28,783,456.94Z" transform="translate(-486.86 -190.97)"/><path d="M883.65,391.65q-12.48-12.09-32.24-12.08-13.89,0-24.39,6.22a41,41,0,0,0-16.1,17.58,57.87,57.87,0,0,0-5.59,25.88v1.18q0,23.26,12.58,36.79t33.68,13.53q21.1,0,33.64-13.57t12.54-36l-.18-6.68Q896.14,403.74,883.65,391.65Zm-17.27,60.81q-5.32,7.28-14.79,7.28-9.74,0-15-7.37t-5.23-21.27q0-15.62,5.23-23.07t14.79-7.45q9.66,0,15,7.49t5.32,21.14Q871.7,445.2,866.38,452.46Z" transform="translate(-486.86 -190.97)"/><path d="M998.86,428q0-23.17-11.5-35.8t-31.52-12.62a45.23,45.23,0,0,0-23.76,6.26A41.67,41.67,0,0,0,916,403.69,58.9,58.9,0,0,0,910.3,430v2.52q0,21.92,13.48,35.08t35,13.17a52,52,0,0,0,22.18-4.65,39.11,39.11,0,0,0,15.87-12.94L984,448.82q-8.47,10.92-23.54,10.92-9.74,0-16.1-5.78t-7.62-15.33h62.14Zm-25.61-7.12H937q1.37-9.78,6.18-15a16.3,16.3,0,0,1,12.58-5.25q8.29,0,12.81,4.75t4.69,13.45Z" transform="translate(-486.86 -190.97)"/><rect class="cls-1" x="577.33" y="289.96" width="21.06" height="202" transform="translate(-289.96 787.85) rotate(-90)"/></svg>