<svg id="Layer_1" data-name="Layer 1" xmlns="http://www.w3.org/2000/svg" viewBox="0 0 406.79 343.17"><defs><style>.cls-1{fill:#c4c4c4;}</style></defs><title>ttt-o-win</title><path d="M207.12,1815.67q0,22.47-7.94,39.4a59.83,59.83,0,0,1-22.72,26.12q-14.79,9.19-33.91,9.19-18.92,0-33.75-9.09t-23-26q-8.15-16.87-8.26-38.82V1809q0-22.45,8.1-39.55t22.89-26.22q14.77-9.15,33.8-9.15t33.8,9.15q14.79,9.13,22.89,26.22t8.09,39.45Zm-31.76-6.89q0-23.94-8.57-36.37T142.34,1760q-15.78,0-24.35,12.28t-8.67,36v7.42q0,23.31,8.57,36.16t24.66,12.85q15.78,0,24.24-12.38t8.57-36.11Z" transform="translate(-72.22 -1727.79)"/><path d="M236.59,1782.86l-14.21-8.25q9-14.11,9.3-29.16v-17.66h24V1744q0,9.4-5.22,20.38A56.11,56.11,0,0,1,236.59,1782.86Z" transform="translate(-72.22 -1727.79)"/><path d="M314,1857.05q0-5.54-5.49-8.72t-17.6-5.7q-40.33-8.46-40.34-34.27,0-15,12.49-25.13t32.65-10.09q21.52,0,34.43,10.14t12.91,26.33h-30.2a14.59,14.59,0,0,0-4.18-10.71q-4.19-4.23-13.06-4.23-7.63,0-11.81,3.45a10.87,10.87,0,0,0-4.18,8.77q0,5,4.76,8.1t16,5.33a131.21,131.21,0,0,1,19,5.07q23.93,8.77,23.93,30.41,0,15.46-13.27,25t-34.27,9.56a59.93,59.93,0,0,1-25.24-5.06,42.31,42.31,0,0,1-17.29-13.9,32.29,32.29,0,0,1-6.27-19.07h28.63q.42,8,6,12.33t14.83,4.28q8.69,0,13.12-3.29A10.24,10.24,0,0,0,314,1857.05Z" transform="translate(-72.22 -1727.79)"/><path d="M200.65,2025.41l20.48-108.26h31.24l-33.75,152.14H187.06L162.3,1967.52l-24.77,101.77H106L72.22,1917.15h31.25l20.58,108,25.08-108h26.54Z" transform="translate(-72.22 -1727.79)"/><path d="M267.1,1927a14.86,14.86,0,0,1,4.55-11.18q4.55-4.4,12.38-4.39t12.33,4.39a15.95,15.95,0,0,1-.05,22.46q-4.65,4.4-12.28,4.39t-12.28-4.39A14.82,14.82,0,0,1,267.1,1927Zm32.08,142.31h-30.3V1956.23h30.3Z" transform="translate(-72.22 -1727.79)"/><path d="M351.85,1956.23l.94,13.07q12.12-15.15,32.49-15.16,18,0,26.75,10.56t9,31.55v73h-30.2V1997q0-9.62-4.18-14t-13.9-4.34q-12.75,0-19.12,10.87v79.72h-30.2V1956.23Z" transform="translate(-72.22 -1727.79)"/><path d="M462.08,2039.1q7.64,0,12.28,4.49a16.4,16.4,0,0,1,0,22.88q-4.65,4.5-12.28,4.5t-12.17-4.5a15.15,15.15,0,0,1-4.65-11.39,15.34,15.34,0,0,1,4.65-11.44Q454.56,2039.09,462.08,2039.1Zm12.54-16.51H449.55L446,1917.15h32.19Z" transform="translate(-72.22 -1727.79)"/><rect class="cls-1" x="414.18" y="1779.15" width="24.41" height="103.64" transform="translate(-1476.82 529.56) rotate(-90)"/></svg>